<svg display="none" xmlns="http://www.w3.org/2000/svg">
  <symbol id="add-icon" viewBox="0 0 12 12">
    <path fill-rule="evenodd" clip-rule="evenodd" d="M11.25 6.75H6.75V11.25H5.25V6.75H0.75V5.25H5.25V0.75H6.75V5.25H11.25V6.75Z"/>
  </symbol>
  <symbol id="planning-icon" viewBox="0 0 28 30">
    <path fill-rule="evenodd" clip-rule="evenodd" d="M17.76 3.00001H24.6667C26.1333 3.00001 27.3333 4.20001 27.3333 5.66668V27C27.3333 28.4667 26.1333 29.6667 24.6667 29.6667H3.33333C3.14666 29.6667 2.97333 29.6533 2.8 29.6267C2.28 29.52 1.81333 29.2533 1.45333 28.8933C1.21333 28.64 1.01333 28.36 0.879997 28.04C0.746664 27.72 0.666664 27.36 0.666664 27V5.66668C0.666664 5.29334 0.746664 4.94668 0.879997 4.64001C1.01333 4.32001 1.21333 4.02668 1.45333 3.78668C1.81333 3.42668 2.28 3.16001 2.8 3.05334C2.97333 3.01334 3.14666 3.00001 3.33333 3.00001H10.24C10.8 1.45334 12.2667 0.333344 14 0.333344C15.7333 0.333344 17.2 1.45334 17.76 3.00001ZM15 3.66668C15 3.12001 14.5467 2.66668 14 2.66668C13.4533 2.66668 13 3.12001 13 3.66668C13 4.21334 13.4533 4.66668 14 4.66668C14.5467 4.66668 15 4.21334 15 3.66668ZM3.33333 5.66668V27H24.6667V5.66668H3.33333ZM9.60666 7.00001L8.07666 8.53001L6.54666 7.00001L4.66666 8.88001L6.19666 10.41L4.66666 11.94L6.54666 13.82L8.07666 12.29L9.60666 13.82L11.4867 11.94L9.95666 10.41L11.4867 8.88001L9.60666 7.00001ZM20.0767 20.53L21.6067 19L23.4867 20.88L21.9567 22.41L23.4867 23.94L21.6067 25.82L20.0767 24.29L18.5467 25.82L16.6667 23.94L18.1967 22.41L16.6667 20.88L18.5467 19L20.0767 20.53ZM19.72 12.0867L21.4533 13.82L23.3333 11.94L18.3933 7.00001L13.4533 11.94L15.3333 13.82L17.0533 12.1V13.6667C17.0533 15.1394 15.8594 16.3333 14.3867 16.3333H11.3333C8.74067 16.3333 6.5801 18.1833 6.09966 20.6353C5.24795 21.0805 4.66666 21.9724 4.66666 23C4.66666 24.4728 5.86057 25.6667 7.33333 25.6667C8.80609 25.6667 10 24.4728 10 23C10 22.0761 9.53017 21.262 8.81641 20.7835C9.18088 19.7448 10.1701 19 11.3333 19H14.3867C17.3322 19 19.72 16.6122 19.72 13.6667V12.0867Z"/>
  </symbol>
  <symbol id="burger-icon" viewBox="0 0 18 12">
    <path fill-rule="evenodd" clip-rule="evenodd" d="M0 2V0H18V2H0ZM0 7H18V5H0V7ZM0 12H18V10H0V12Z"/>
  </symbol>

  <symbol id="filters-icon" viewBox="0 0 14 14">
    <path fill-rule="evenodd" clip-rule="evenodd" d="M0.25 10.75V12.25H4.75V10.75H0.25ZM0.25 1.75V3.25H7.75V1.75H0.25ZM7.75 13.75V12.25H13.75V10.75H7.75V9.25H6.25V13.75H7.75ZM3.25 4.75V6.25H0.25V7.75H3.25V9.25H4.75V4.75H3.25ZM13.75 7.75V6.25H6.25V7.75H13.75ZM9.25 4.75H10.75V3.25H13.75V1.75H10.75V0.25H9.25V4.75Z"/>
  </symbol>
  <symbol id="cross-icon" viewBox="0 0 10 10" >
    <path d="M9.5 1.5575L8.4425 0.5L5 3.9425L1.5575 0.5L0.5 1.5575L3.9425 5L0.5 8.4425L1.5575 9.5L5 6.0575L8.4425 9.5L9.5 8.4425L6.0575 5L9.5 1.5575Z"/>
  </symbol>
  <symbol id="menu-icon" viewBox="0 0 4 12">
    <path fill-rule="evenodd" clip-rule="evenodd" d="M1.99996 3.33335C2.73329 3.33335 3.33329 2.73335 3.33329 2.00002C3.33329 1.26669 2.73329 0.666687 1.99996 0.666687C1.26663 0.666687 0.666626 1.26669 0.666626 2.00002C0.666626 2.73335 1.26663 3.33335 1.99996 3.33335ZM1.99996 4.66669C1.26663 4.66669 0.666626 5.26669 0.666626 6.00002C0.666626 6.73335 1.26663 7.33335 1.99996 7.33335C2.73329 7.33335 3.33329 6.73335 3.33329 6.00002C3.33329 5.26669 2.73329 4.66669 1.99996 4.66669ZM1.99996 8.66669C1.26663 8.66669 0.666626 9.26669 0.666626 10C0.666626 10.7334 1.26663 11.3334 1.99996 11.3334C2.73329 11.3334 3.33329 10.7334 3.33329 10C3.33329 9.26669 2.73329 8.66669 1.99996 8.66669Z" />
  </symbol>
  <symbol id="progress-icon"  viewBox="0 0 14 14" >
    <path fill-rule="evenodd" clip-rule="evenodd" d="M1.73357 2.91153C0.855973 4.04045 0.333374 5.45903 0.333374 6.99967C0.333374 7.30734 0.354216 7.61014 0.394564 7.90674L2.02194 7.47068C2.00745 7.31563 2.00004 7.15851 2.00004 6.99967C2.00004 5.91977 2.3424 4.91982 2.92449 4.10245L1.73357 2.91153ZM2.9121 1.73304L4.10303 2.92397C4.70545 2.495 5.40704 2.19625 6.16671 2.0688V0.384583C4.94949 0.536367 3.83419 1.01629 2.9121 1.73304ZM6.16671 13.6148C3.73967 13.3121 1.71778 11.7048 0.824962 9.51687L2.4524 9.0808C3.13089 10.561 4.5108 11.6527 6.16671 11.9305V13.6148ZM7.83337 11.9305C10.1981 11.5338 12 9.47717 12 6.99967C12 4.52217 10.1981 2.46553 7.83337 2.0688V0.384583C11.122 0.794665 13.6667 3.59999 13.6667 6.99967C13.6667 10.3994 11.122 13.2047 7.83337 13.6148V11.9305Z"/>
  </symbol>

</svg>
